<svg width="77" height="22" viewBox="0 0 77 22" fill="none" xmlns="http://www.w3.org/2000/svg">
<path d="M18.2628 14.6222C19.0862 13.192 19.5587 11.5346 19.5587 9.76665C19.5587 4.37278 15.1807 5.41099e-08 9.77932 5.41099e-08C4.37849 -0.000561649 0 4.37214 0 9.76601C0 12.5907 1.20018 15.1352 3.12265 16.9194C3.17286 14.1364 3.26058 11.0234 3.40999 9.86455C3.69189 7.6845 5.74017 6.84523 8.44061 4.56247C9.23849 3.88578 10.4877 3.71294 12.1131 4.86218C13.8384 6.08268 15.5479 6.78963 16.096 7.34796C16.814 8.07962 16.4862 8.74187 15.8063 8.74187C15.1311 8.74187 13.8269 7.84699 12.9347 7.42162C10.0268 6.02716 9.77868 5.91835 8.42122 7.44826C6.97968 9.07423 6.12372 10.6446 8.01231 11.601C9.63052 12.4197 11.285 10.6784 12.3116 9.45547C13.2165 8.37933 14.4034 8.444 14.8153 8.96181C15.2273 9.48388 14.3127 9.8071 13.6611 10.4705C12.3769 11.7787 12.7635 12.1086 11.7611 13.8216C10.9408 15.2239 9.81438 15.1297 8.77271 16.1684C8.37526 16.5623 8.2906 17.9973 8.31419 19.4257C8.79209 19.5 9.28147 19.5363 9.77868 19.5363C11.5548 19.5363 13.2189 19.0589 14.6563 18.2324L17.9798 18.8009C17.9798 18.8009 19.0112 18.9187 18.7577 17.5623C18.6446 16.952 18.428 15.6373 18.2628 14.6222ZM14.5909 5.65434L11.7617 4.10573C12.3484 4.16792 12.5778 4.16551 13.0042 4.23982C13.3659 4.30329 14.5365 4.34076 14.8184 4.84228C15.0991 5.33955 14.5909 5.65434 14.5909 5.65434Z" fill="white"/>
<path d="M42.5624 10.7862L42.1959 15.8139L42.1832 16.0042C42.11 16.3644 41.7802 16.6206 41.4004 16.5939L39.7508 16.4761C39.3381 16.4465 39.0333 16.0937 39.0605 15.6834L39.4198 10.6883C39.4936 9.67439 38.7925 8.7276 37.7841 8.59287C36.6867 8.44426 35.7043 9.25392 35.6269 10.3415L35.2555 15.4888C35.1907 15.8574 34.8574 16.1275 34.4739 16.0997L32.8207 15.9806C32.4389 15.9541 32.1419 15.6399 32.1328 15.2622L32.4087 11.4001C32.4075 11.4285 32.4038 11.4568 32.4002 11.4847L32.4172 11.3022L33.1443 1.16459C33.2005 0.784554 33.5405 0.505389 33.9307 0.533153L35.5827 0.652232C35.9663 0.679355 36.2561 0.988131 36.2705 1.36158L35.9367 6.00679C36.3553 5.79832 36.8259 5.51859 37.2735 5.4032C40.2504 4.62556 42.8534 6.7476 42.5624 10.7862Z" fill="white"/>
<path d="M54.1171 10.3396C54.1171 10.31 54.1153 10.2798 54.1147 10.2526L54.1268 10.4375L54.1286 10.4526L54.526 15.7951C54.5242 15.7951 54.5242 15.7951 54.526 15.7963L54.5388 15.9915C54.5194 16.3401 54.2568 16.6332 53.9048 16.6803L53.8176 16.6864C53.8152 16.6869 53.8104 16.6876 53.808 16.6869L52.2751 16.8018C52.2732 16.8012 52.2732 16.8018 52.2732 16.8018L52.1275 16.812C51.7766 16.8036 51.4826 16.5534 51.4167 16.2132C51.4167 16.2132 51.4167 16.2132 51.4167 16.2114C51.4149 16.2036 51.4131 16.1946 51.4124 16.1855L51.4034 16.0713L51.3544 15.4078C50.8444 16.3317 50.2098 16.8072 49.7895 16.9849C46.956 18.1879 44.463 16.461 44.1617 12.42L43.7934 7.38255L43.7812 7.2146C43.7946 6.84902 44.0807 6.53968 44.4551 6.50766L44.4763 6.50525L46.0141 6.39163C46.0146 6.38922 46.0146 6.38922 46.0177 6.39163L46.2161 6.37534H46.2179H46.2209C46.5561 6.39893 46.8392 6.64969 46.8984 6.98318C46.9033 7.00734 46.9063 7.03269 46.9081 7.05813L47.2826 12.0623C47.3588 13.0756 48.1912 13.9099 49.2069 13.8979C50.3175 13.8852 51.1686 12.9408 51.087 11.8538L51.0011 10.6877L50.7143 6.86956C50.7143 6.86956 50.7143 6.86956 50.7138 6.869L50.7016 6.70522C50.7023 6.70225 50.7023 6.69984 50.7023 6.698C50.715 6.33185 51.0035 6.02307 51.3774 5.99105L51.3967 5.98985L52.9393 5.87502L53.1347 5.85938H53.1377C53.4765 5.87928 53.7608 6.13124 53.8219 6.46657C53.8273 6.49314 53.8285 6.51914 53.8316 6.54393C53.8322 6.55597 53.8322 6.56929 53.8322 6.58197L54.1068 10.2345L54.1171 10.3396Z" fill="white"/>
<path d="M67.3387 9.0032C67.0193 8.29746 66.548 7.66787 65.991 7.14525C65.4265 6.62318 64.7671 6.2129 64.0479 5.95075C63.3311 5.68602 62.5627 5.57545 61.8145 5.61838C60.7189 5.67278 59.6633 6.06124 58.7826 6.6812L58.7807 6.67334C58.7202 6.3628 58.4656 6.11926 58.1425 6.08122H58.1413C58.1129 6.07817 58.0905 6.07641 58.0639 6.07641L56.3604 6.10233C55.9914 6.11926 55.6944 6.40693 55.6593 6.76578C55.6593 6.76698 55.6593 6.76882 55.6575 6.77067C55.6545 6.79843 55.6514 6.825 55.6526 6.8534L55.8638 20.8562C55.865 20.8852 55.8668 20.9118 55.8728 20.9402C55.8728 20.9414 55.8728 20.9414 55.8716 20.9432C55.9206 21.3112 56.2394 21.5915 56.6169 21.5855L58.2665 21.5619C58.6519 21.5571 58.9634 21.261 58.9943 20.8852C58.9943 20.8804 58.9955 20.8719 58.9955 20.8671L58.9265 16.1771C59.2005 16.3596 59.4897 16.5198 59.791 16.6545C60.4775 16.9614 61.2283 17.1432 61.9881 17.1668C62.7479 17.191 63.5312 17.0665 64.2548 16.7808C64.9801 16.4943 65.6412 16.0533 66.1911 15.4986C66.741 14.9457 67.179 14.2793 67.4663 13.5506C67.7543 12.8195 67.885 12.0321 67.8692 11.2588C67.8444 10.4854 67.669 9.70718 67.3387 9.0032ZM64.3443 11.3125C64.334 11.9796 64.1035 12.6201 63.6789 13.1373C63.25 13.6449 62.6468 14.008 61.944 14.0992C61.5894 14.1403 61.2259 14.1125 60.8829 13.9959C60.5387 13.8799 60.2126 13.6841 59.947 13.4176C59.6791 13.1536 59.4837 12.8243 59.359 12.4775C59.232 12.1252 59.1648 11.7615 59.1546 11.3893C59.1485 11.0171 59.1879 10.6461 59.2938 10.2842C59.3996 9.92407 59.5834 9.57782 59.8442 9.29866C60.105 9.01716 60.431 8.80323 60.7746 8.67091C61.1248 8.53795 61.4933 8.48603 61.858 8.50834C62.5851 8.56154 63.2475 8.90113 63.6952 9.43282C64.1513 9.96997 64.3516 10.6461 64.3443 11.3125Z" fill="white"/>
<path d="M30.6748 15.7522C30.6688 15.777 30.6633 15.8066 30.6572 15.8332C30.6161 15.98 30.54 16.1069 30.4353 16.2065C30.4335 16.2077 30.4323 16.2084 30.4323 16.2084C30.3633 16.2585 30.2937 16.3039 30.2218 16.3503C30.2218 16.351 30.2218 16.351 30.2205 16.351C29.2647 16.9703 28.1178 17.328 26.8916 17.3159C23.5711 17.2778 20.9088 14.5601 20.9457 11.2435C20.9826 7.92871 23.7036 5.27137 27.0229 5.30699C28.2394 5.32032 29.3681 5.69369 30.3064 6.32576C30.3076 6.32576 30.3076 6.32577 30.3094 6.32753C30.3923 6.38378 30.4758 6.44292 30.5575 6.50214C30.5593 6.50519 30.5593 6.50519 30.5605 6.5076C30.5774 6.52332 30.5925 6.54025 30.6064 6.55895C30.8381 6.8532 30.8369 7.26533 30.6089 7.55589L30.4559 7.70458L29.3452 8.79276L29.2139 8.91843C29.2121 8.92027 29.2103 8.92147 29.2079 8.92508C28.9671 9.10579 28.6495 9.13476 28.3833 9.01456C28.3374 8.98495 28.289 8.9559 28.2394 8.92934C28.2394 8.92813 28.2382 8.92814 28.237 8.92749C27.8637 8.72512 27.4396 8.60909 26.9872 8.60483C25.4936 8.5879 24.265 9.7885 24.2493 11.2797C24.2305 12.771 25.4349 13.9999 26.926 14.0151C27.3731 14.0199 27.7965 13.9153 28.1722 13.7244C28.2297 13.696 28.289 13.6652 28.344 13.6302C28.4759 13.5769 28.6235 13.5552 28.7771 13.5812C28.9526 13.6108 29.1056 13.6912 29.2224 13.815C29.2273 13.8193 29.2302 13.8235 29.2351 13.8271L30.3536 14.9697C30.3536 14.9709 30.3548 14.9709 30.3567 14.9727L30.54 15.1613C30.5412 15.1618 30.5429 15.1625 30.5429 15.1637C30.6428 15.3093 30.6954 15.4827 30.6851 15.6694C30.6815 15.6942 30.6791 15.7226 30.6748 15.7522Z" fill="white"/>
<path d="M75.0571 15.96H74.7086V16.9896H74.463V15.96H74.1211V15.7715H75.0577V15.96H75.0571Z" fill="white"/>
<path d="M75.8285 16.6719H75.8351L76.1492 15.7734H76.4675V16.9915H76.2217V16.1613L76.2169 16.1583L75.9168 16.9915H75.7498L75.4479 16.1565L75.4431 16.1571V16.9915H75.1992V15.7734H75.5205L75.8285 16.6719Z" fill="white"/>
<path d="M73.5434 3.93498C73.5434 3.93498 73.5404 3.93498 73.5398 3.93498C73.5162 3.92832 73.4908 3.92351 73.4672 3.9211L70.9628 3.72049C70.5889 3.69506 70.258 3.95071 70.18 4.30956C70.18 4.31141 70.18 4.31261 70.177 4.31325C70.1709 4.33917 70.1649 4.36757 70.1618 4.39422L69.8594 14.8823C70.2024 14.7892 70.5677 14.7553 70.9398 14.7982C71.3094 14.8388 71.656 14.9505 71.9676 15.113L74.1212 4.61713V4.60871C74.0957 4.28725 73.8616 4.0129 73.5434 3.93498Z" fill="white"/>
<path d="M70.8357 15.7854C69.7708 15.6676 68.8118 16.4337 68.6961 17.4959C68.5752 18.5569 69.3418 19.5146 70.4061 19.6331C71.4704 19.7509 72.4306 18.9877 72.5487 17.9256C72.666 16.8633 71.9006 15.905 70.8357 15.7854Z" fill="white"/>
</svg>
