<svg width="33" height="33" viewBox="0 0 33 33" fill="none" xmlns="http://www.w3.org/2000/svg">
<path d="M30.8919 24.517C32.2529 22.15 33.0339 19.407 33.0339 16.481C33.0339 7.55399 25.7969 0.316986 16.8679 0.316986C7.9399 0.315986 0.701904 7.55299 0.701904 16.48C0.701904 21.155 2.6859 25.366 5.8639 28.319C5.9469 23.713 6.0919 18.561 6.3389 16.643C6.8049 13.035 10.1909 11.646 14.6549 7.86799C15.9739 6.74799 18.0389 6.46199 20.7259 8.36399C23.5779 10.384 26.4039 11.554 27.3099 12.478C28.4969 13.689 27.9549 14.785 26.8309 14.785C25.7149 14.785 23.5589 13.304 22.0839 12.6C17.2769 10.292 16.8669 10.112 14.6229 12.644C12.2399 15.335 10.8249 17.934 13.9469 19.517C16.6219 20.872 19.3569 17.99 21.0539 15.966C22.5499 14.185 24.5119 14.292 25.1929 15.149C25.8739 16.013 24.3619 16.548 23.2849 17.646C21.1619 19.811 21.8009 20.357 20.1439 23.192C18.7879 25.513 16.9259 25.357 15.2039 27.076C14.5469 27.728 14.4069 30.103 14.4459 32.467C15.2359 32.59 16.0449 32.65 16.8669 32.65C19.8029 32.65 22.5539 31.86 24.9299 30.492L30.4239 31.433C30.4239 31.433 32.1289 31.628 31.7099 29.383C31.5229 28.373 31.1649 26.197 30.8919 24.517ZM24.8219 9.67499L20.1449 7.11199C21.1149 7.21499 21.4939 7.21099 22.1989 7.33399C22.7969 7.43899 24.7319 7.50099 25.1979 8.33099C25.6619 9.15399 24.8219 9.67499 24.8219 9.67499Z" fill="#F26522"/>
</svg>
