<svg width="128" height="43" viewBox="0 0 128 43" fill="none" xmlns="http://www.w3.org/2000/svg">
<path d="M30.8919 24.517C32.2529 22.15 33.0339 19.407 33.0339 16.481C33.0339 7.55399 25.7969 0.316986 16.8679 0.316986C7.9399 0.315986 0.701904 7.55299 0.701904 16.48C0.701904 21.155 2.6859 25.366 5.8639 28.319C5.9469 23.713 6.0919 18.561 6.3389 16.643C6.8049 13.035 10.1909 11.646 14.6549 7.86799C15.9739 6.74799 18.0389 6.46199 20.7259 8.36399C23.5779 10.384 26.4039 11.554 27.3099 12.478C28.4969 13.689 27.9549 14.785 26.8309 14.785C25.7149 14.785 23.5589 13.304 22.0839 12.6C17.2769 10.292 16.8669 10.112 14.6229 12.644C12.2399 15.335 10.8249 17.934 13.9469 19.517C16.6219 20.872 19.3569 17.99 21.0539 15.966C22.5499 14.185 24.5119 14.292 25.1929 15.149C25.8739 16.013 24.3619 16.548 23.2849 17.646C21.1619 19.811 21.8009 20.357 20.1439 23.192C18.7879 25.513 16.9259 25.357 15.2039 27.076C14.5469 27.728 14.4069 30.103 14.4459 32.467C15.2359 32.59 16.0449 32.65 16.8669 32.65C19.8029 32.65 22.5539 31.86 24.9299 30.492L30.4239 31.433C30.4239 31.433 32.1289 31.628 31.7099 29.383C31.5229 28.373 31.1649 26.197 30.8919 24.517ZM24.8219 9.67499L20.1449 7.11199C21.1149 7.21499 21.4939 7.21099 22.1989 7.33399C22.7969 7.43899 24.7319 7.50099 25.1979 8.33099C25.6619 9.15399 24.8219 9.67499 24.8219 9.67499Z" fill="#F26522"/>
<path d="M71.063 18.168L70.457 26.489L70.436 26.804C70.315 27.4 69.77 27.824 69.142 27.78L66.415 27.585C65.733 27.536 65.229 26.952 65.274 26.273L65.868 18.006C65.99 16.328 64.831 14.761 63.164 14.538C61.35 14.292 59.726 15.632 59.598 17.432L58.984 25.951C58.877 26.561 58.326 27.008 57.692 26.962L54.959 26.765C54.328 26.721 53.837 26.201 53.822 25.576L54.278 19.184C54.276 19.231 54.27 19.278 54.264 19.324L54.292 19.022L55.494 2.24399C55.587 1.61499 56.149 1.15299 56.794 1.19899L59.525 1.39599C60.159 1.44099 60.638 1.95199 60.662 2.56999L60.11 10.258C60.802 9.91299 61.58 9.44999 62.32 9.25899C67.241 7.97199 71.544 11.484 71.063 18.168Z" fill="#115934"/>
<path d="M70.457 26.646C70.454 26.69 70.451 26.73 70.441 26.772C70.438 26.783 70.438 26.793 70.436 26.803L70.457 26.489C70.459 26.5 70.459 26.51 70.459 26.521C70.462 26.562 70.459 26.606 70.457 26.646Z" fill="#115934"/>
<path d="M90.161 17.431C90.161 17.382 90.158 17.332 90.157 17.287L90.177 17.593L90.18 17.618L90.837 26.46C90.834 26.46 90.834 26.46 90.837 26.462L90.858 26.785C90.826 27.362 90.392 27.847 89.81 27.925L89.666 27.935C89.662 27.936 89.654 27.937 89.65 27.936L87.116 28.126C87.113 28.125 87.113 28.126 87.113 28.126L86.872 28.143C86.292 28.129 85.806 27.715 85.697 27.152C85.697 27.152 85.697 27.152 85.697 27.149C85.694 27.136 85.691 27.121 85.69 27.106L85.675 26.917L85.594 25.819C84.751 27.348 83.702 28.135 83.007 28.429C78.323 30.42 74.202 27.562 73.704 20.874L73.095 12.537L73.075 12.259C73.097 11.654 73.57 11.142 74.189 11.089L74.224 11.085L76.766 10.897C76.767 10.893 76.767 10.893 76.772 10.897L77.1 10.87H77.103H77.108C77.662 10.909 78.13 11.324 78.228 11.876C78.236 11.916 78.241 11.958 78.244 12L78.863 20.282C78.989 21.959 80.365 23.34 82.044 23.32C83.88 23.299 85.287 21.736 85.152 19.937L85.01 18.007L84.536 11.688C84.536 11.688 84.536 11.688 84.535 11.687L84.515 11.416C84.516 11.411 84.516 11.407 84.516 11.404C84.537 10.798 85.014 10.287 85.632 10.234L85.664 10.232L88.214 10.042L88.537 10.016H88.542C89.102 10.049 89.572 10.466 89.673 11.021C89.682 11.065 89.684 11.108 89.689 11.149C89.69 11.169 89.69 11.191 89.69 11.212L90.144 17.257L90.161 17.431Z" fill="#115934"/>
<path d="M112.018 15.215C111.49 14.047 110.711 13.005 109.79 12.14C108.857 11.276 107.767 10.597 106.578 10.163C105.393 9.725 104.123 9.542 102.886 9.613C101.075 9.703 99.3299 10.346 97.8739 11.372L97.8709 11.359C97.7709 10.845 97.3499 10.442 96.8159 10.379H96.8139C96.7669 10.374 96.7299 10.371 96.6859 10.371L93.8699 10.414C93.2599 10.442 92.7689 10.918 92.7109 11.512C92.7109 11.514 92.7109 11.517 92.7079 11.52C92.7029 11.566 92.6979 11.61 92.6999 11.657L93.0489 34.832C93.0509 34.88 93.0539 34.924 93.0639 34.971C93.0639 34.973 93.0639 34.973 93.0619 34.976C93.1429 35.585 93.6699 36.049 94.2939 36.039L97.0209 36C97.6579 35.992 98.1729 35.502 98.2239 34.88C98.2239 34.872 98.2259 34.858 98.2259 34.85L98.1119 27.088C98.5649 27.39 99.0429 27.655 99.5409 27.878C100.676 28.386 101.917 28.687 103.173 28.726C104.429 28.766 105.724 28.56 106.92 28.087C108.119 27.613 109.212 26.883 110.121 25.965C111.03 25.05 111.754 23.947 112.229 22.741C112.705 21.531 112.921 20.228 112.895 18.948C112.854 17.668 112.564 16.38 112.018 15.215ZM107.068 19.037C107.051 20.141 106.67 21.201 105.968 22.057C105.259 22.897 104.262 23.498 103.1 23.649C102.514 23.717 101.913 23.671 101.346 23.478C100.777 23.286 100.238 22.962 99.7989 22.521C99.3559 22.084 99.0329 21.539 98.8269 20.965C98.6169 20.382 98.5059 19.78 98.4889 19.164C98.4789 18.548 98.5439 17.934 98.7189 17.335C98.8939 16.739 99.1979 16.166 99.6289 15.704C100.06 15.238 100.599 14.884 101.167 14.665C101.746 14.445 102.355 14.359 102.958 14.396C104.16 14.484 105.255 15.046 105.995 15.926C106.749 16.815 107.08 17.934 107.068 19.037Z" fill="#115934"/>
<path d="M51.4139 26.388C51.4039 26.429 51.3949 26.478 51.3849 26.522C51.3169 26.765 51.1909 26.975 51.0179 27.14C51.0149 27.142 51.0129 27.143 51.0129 27.143C50.8989 27.226 50.7839 27.301 50.6649 27.378C50.6649 27.379 50.6649 27.379 50.6629 27.379C49.0829 28.404 47.1869 28.996 45.1599 28.976C39.6709 28.913 35.2699 24.415 35.3309 18.926C35.3919 13.44 39.8899 9.04199 45.3769 9.10099C47.3879 9.12299 49.2539 9.74099 50.8049 10.787C50.8069 10.787 50.8069 10.787 50.8099 10.79C50.9469 10.883 51.0849 10.981 51.2199 11.079C51.2229 11.084 51.2229 11.084 51.2249 11.088C51.2529 11.114 51.2779 11.142 51.3009 11.173C51.6839 11.66 51.6819 12.342 51.3049 12.823L51.0519 13.069L49.2159 14.87L48.9989 15.078C48.9959 15.081 48.9929 15.083 48.9889 15.089C48.5909 15.388 48.0659 15.436 47.6259 15.237C47.5499 15.188 47.4699 15.14 47.3879 15.096C47.3879 15.094 47.3859 15.094 47.3839 15.093C46.7669 14.758 46.0659 14.566 45.3179 14.559C42.8489 14.531 40.8179 16.518 40.7919 18.986C40.7609 21.454 42.7519 23.488 45.2169 23.513C45.9559 23.521 46.6559 23.348 47.2769 23.032C47.3719 22.985 47.4699 22.934 47.5609 22.876C47.7789 22.788 48.0229 22.752 48.2769 22.795C48.5669 22.844 48.8199 22.977 49.0129 23.182C49.0209 23.189 49.0259 23.196 49.0339 23.202L50.8829 25.093C50.8829 25.095 50.8849 25.095 50.8879 25.098L51.1909 25.41C51.1929 25.411 51.1959 25.412 51.1959 25.414C51.3609 25.655 51.4479 25.942 51.4309 26.251C51.4249 26.292 51.4209 26.339 51.4139 26.388Z" fill="#115934"/>
<path d="M124.783 26.733H124.207V28.437H123.801V26.733H123.236V26.421H124.784V26.733H124.783Z" fill="#115934"/>
<path d="M126.046 27.909H126.057L126.576 26.422H127.102V28.438H126.696V27.064L126.688 27.059L126.192 28.438H125.916L125.417 27.056L125.409 27.057V28.438H125.006V26.422H125.537L126.046 27.909Z" fill="#115934"/>
<path d="M122.28 6.82897C122.28 6.82897 122.275 6.82897 122.274 6.82897C122.235 6.81797 122.193 6.80997 122.154 6.80597L118.014 6.47397C117.396 6.43197 116.849 6.85497 116.72 7.44897C116.72 7.45197 116.72 7.45397 116.715 7.45497C116.705 7.49797 116.695 7.54497 116.69 7.58897L116.19 24.947C116.757 24.793 117.361 24.737 117.976 24.808C118.587 24.875 119.16 25.06 119.675 25.329L123.235 7.95797V7.94397C123.193 7.41197 122.806 6.95797 122.28 6.82897Z" fill="#115934"/>
<path d="M117.795 26.441C116.035 26.246 114.45 27.514 114.259 29.272C114.059 31.028 115.326 32.613 117.085 32.809C118.844 33.004 120.431 31.741 120.626 29.983C120.82 28.225 119.555 26.639 117.795 26.441Z" fill="#F26522"/>
<path d="M35.6734 41.3009C35.481 41.208 35.3161 41.1018 35.1924 40.9425C35.0825 40.7965 35.0137 40.6106 35 40.4248H35.5772C35.5909 40.5841 35.6734 40.7168 35.8108 40.823C35.9482 40.9292 36.1406 40.9823 36.3605 40.9823C36.5666 40.9823 36.7453 40.9425 36.8552 40.8496C36.9789 40.7566 37.0339 40.6504 37.0339 40.5044C37.0339 40.3584 36.9652 40.2522 36.8415 40.1858C36.7041 40.1195 36.5117 40.0531 36.2368 39.9867C35.9895 39.9204 35.7833 39.854 35.6322 39.8009C35.481 39.708 35.3436 39.615 35.2336 39.4956C35.1237 39.3628 35.0687 39.1903 35.0687 38.9912C35.0687 38.8319 35.1237 38.6726 35.2199 38.5398C35.3161 38.4071 35.4672 38.2876 35.6596 38.208C35.852 38.1283 36.0582 38.0885 36.3055 38.0885C36.6766 38.0885 36.9789 38.1814 37.1988 38.3673C37.4324 38.5531 37.5423 38.792 37.5698 39.1106H37.0201C36.9926 38.9248 36.9239 38.792 36.8003 38.6858C36.6628 38.5929 36.4979 38.5398 36.278 38.5398C36.0719 38.5398 35.9207 38.5797 35.7971 38.6593C35.6871 38.7389 35.6184 38.8451 35.6184 38.9912C35.6184 39.0974 35.6596 39.1903 35.7283 39.2566C35.7971 39.323 35.8933 39.3761 36.0032 39.4159C36.1131 39.4558 36.2643 39.5089 36.4567 39.562C36.7041 39.6283 36.8965 39.6814 37.0476 39.7478C37.1988 39.8142 37.3225 39.9071 37.4324 40.0266C37.5423 40.146 37.5973 40.3053 37.5973 40.5044C37.5973 40.677 37.5423 40.8363 37.4461 40.9823C37.3362 41.115 37.1988 41.2212 37.0064 41.3009C36.8277 41.3805 36.6079 41.4204 36.3742 41.4204C36.1131 41.4204 35.8795 41.3805 35.6734 41.3009Z" fill="#F26522"/>
<path d="M38.3807 38.8717C38.5181 38.6195 38.7105 38.4336 38.9579 38.2876C39.2052 38.1549 39.4663 38.0752 39.7687 38.0752C40.0573 38.0752 40.3184 38.1416 40.5383 38.2611C40.7444 38.3805 40.8956 38.5398 41.0055 38.7257V38.1283H41.5689V41.3673H41.0055V40.7699C40.8956 40.9558 40.7306 41.115 40.5108 41.2345C40.2909 41.3673 40.0435 41.4204 39.7549 41.4204C39.4526 41.4204 39.1915 41.354 38.9441 41.208C38.7105 41.0752 38.5181 40.8761 38.3807 40.6106C38.2433 40.3584 38.1746 40.0664 38.1746 39.7345C38.1746 39.4159 38.2433 39.1239 38.3807 38.8717ZM40.8543 39.1106C40.7581 38.9248 40.6207 38.792 40.4421 38.6991C40.2634 38.5929 40.071 38.5531 39.8649 38.5531C39.6587 38.5531 39.4663 38.6062 39.3014 38.6991C39.1228 38.7788 38.9854 38.9248 38.8892 39.0973C38.793 39.2832 38.738 39.4956 38.738 39.7345C38.738 39.9867 38.793 40.1991 38.8892 40.385C38.9854 40.5708 39.1228 40.7035 39.3014 40.8097C39.4663 40.9027 39.6587 40.9558 39.8649 40.9558C40.071 40.9558 40.2634 40.9027 40.4421 40.8097C40.6207 40.7168 40.7581 40.5708 40.8543 40.385C40.9505 40.1991 41.0055 39.9867 41.0055 39.7478C41.0055 39.5089 40.9505 39.2965 40.8543 39.1106Z" fill="#F26522"/>
<path d="M45.4031 38.1283L43.383 42.8938H42.8058L43.4654 41.3407L42.1187 38.1283H42.7371L43.7952 40.7566L44.8396 38.1283H45.4031V38.1283Z" fill="#F26522"/>
<path d="M49.7318 38.2611C49.9517 38.3805 50.1166 38.5398 50.2128 38.7257V38.1283H50.7762V41.4336C50.7762 41.7257 50.7075 41.9912 50.5838 42.2168C50.4601 42.4425 50.2677 42.6283 50.0204 42.7611C49.773 42.8938 49.4982 42.9602 49.1683 42.9602C48.7286 42.9602 48.3575 42.854 48.069 42.6549C47.7804 42.469 47.6017 42.1903 47.5605 41.8451H48.1102C48.1652 42.0443 48.2888 42.2035 48.4812 42.323C48.6736 42.4425 48.9072 42.5089 49.1683 42.5089C49.4707 42.5089 49.718 42.4159 49.9242 42.2301C50.1166 42.031 50.2128 41.7788 50.2128 41.4469V40.7699C50.1028 40.9558 49.9379 41.115 49.718 41.2478C49.4982 41.3673 49.2508 41.4336 48.9622 41.4336C48.6599 41.4336 48.3988 41.3673 48.1514 41.2212C47.9178 41.0752 47.7254 40.8761 47.588 40.6106C47.4505 40.3584 47.3818 40.0664 47.3818 39.7345C47.3818 39.4027 47.4505 39.1106 47.588 38.8584C47.7254 38.6062 47.9178 38.4204 48.1652 38.2743C48.4125 38.1416 48.6736 38.062 48.976 38.062C49.2508 38.0752 49.5119 38.1416 49.7318 38.2611ZM50.0616 39.1106C49.9654 38.9248 49.828 38.792 49.6493 38.6991C49.4707 38.6062 49.292 38.5531 49.0722 38.5531C48.866 38.5531 48.6736 38.6062 48.5087 38.6991C48.3438 38.792 48.2064 38.9381 48.0964 39.1106C48.0002 39.2965 47.9453 39.5089 47.9453 39.7478C47.9453 40 48.0002 40.2124 48.0964 40.3982C48.1926 40.5841 48.3301 40.7168 48.5087 40.823C48.6736 40.9159 48.866 40.969 49.0722 40.969C49.2783 40.969 49.4707 40.9159 49.6493 40.823C49.828 40.7301 49.9654 40.5841 50.0616 40.3982C50.1578 40.2124 50.2128 40 50.2128 39.7611C50.2128 39.5089 50.1578 39.2965 50.0616 39.1106Z" fill="#F26522"/>
<path d="M52.3292 41.2212C52.0681 41.0885 51.8757 40.8894 51.7245 40.6372C51.5734 40.385 51.5046 40.0929 51.5046 39.7611C51.5046 39.4292 51.5734 39.1372 51.7245 38.885C51.8757 38.6327 52.0818 38.4336 52.3292 38.3009C52.5903 38.1681 52.8789 38.1018 53.195 38.1018C53.511 38.1018 53.7996 38.1681 54.0607 38.3009C54.3218 38.4336 54.5142 38.6327 54.6654 38.885C54.8166 39.1372 54.8853 39.4292 54.8853 39.7611C54.8853 40.0929 54.8028 40.385 54.6517 40.6372C54.5005 40.8894 54.2943 41.0885 54.0332 41.2212C53.7721 41.354 53.4835 41.4336 53.1675 41.4336C52.8651 41.4204 52.5765 41.354 52.3292 41.2212ZM53.7447 40.823C53.9233 40.7301 54.0607 40.5974 54.1707 40.4115C54.2806 40.2257 54.3356 40.0133 54.3356 39.7478C54.3356 39.4823 54.2806 39.2699 54.1707 39.0841C54.0607 38.8982 53.9233 38.7655 53.7584 38.6726C53.5935 38.5797 53.4011 38.5398 53.2087 38.5398C53.0026 38.5398 52.8239 38.5797 52.6453 38.6726C52.4803 38.7655 52.3429 38.8982 52.233 39.0841C52.1368 39.2699 52.0818 39.4823 52.0818 39.7478C52.0818 40.0133 52.1368 40.2389 52.233 40.4115C52.3292 40.5974 52.4666 40.7301 52.6315 40.8097C52.7964 40.9027 52.9751 40.9425 53.1812 40.9425C53.3873 40.9558 53.566 40.9027 53.7447 40.823Z" fill="#F26522"/>
<path d="M56.2457 41.2212C55.9846 41.0885 55.7922 40.8894 55.641 40.6372C55.5036 40.385 55.4211 40.0929 55.4211 39.7611C55.4211 39.4292 55.4899 39.1372 55.641 38.885C55.7922 38.6327 55.9983 38.4336 56.2457 38.3009C56.5068 38.1681 56.7954 38.1018 57.1115 38.1018C57.4275 38.1018 57.7161 38.1681 57.9772 38.3009C58.2383 38.4336 58.4307 38.6327 58.5819 38.885C58.7331 39.1372 58.8018 39.4292 58.8018 39.7611C58.8018 40.0929 58.7193 40.385 58.5682 40.6372C58.417 40.8894 58.2109 41.0885 57.9497 41.2212C57.6886 41.354 57.4 41.4336 57.084 41.4336C56.7816 41.4204 56.4931 41.354 56.2457 41.2212ZM57.6612 40.823C57.8398 40.7301 57.9772 40.5974 58.0872 40.4115C58.1971 40.2257 58.2521 40.0133 58.2521 39.7478C58.2521 39.4823 58.1971 39.2699 58.0872 39.0841C57.9772 38.8982 57.8398 38.7655 57.6749 38.6726C57.51 38.5797 57.3176 38.5398 57.1252 38.5398C56.9191 38.5398 56.7404 38.5797 56.5618 38.6726C56.3969 38.7655 56.2594 38.8982 56.1495 39.0841C56.0533 39.2699 55.9983 39.4823 55.9983 39.7478C55.9983 40.0133 56.0533 40.2389 56.1495 40.4115C56.2457 40.5974 56.3831 40.7301 56.548 40.8097C56.7129 40.9027 56.8916 40.9425 57.0977 40.9425C57.2901 40.9558 57.4825 40.9027 57.6612 40.823Z" fill="#F26522"/>
<path d="M59.5439 38.8717C59.6813 38.6195 59.8737 38.4336 60.121 38.2876C60.3684 38.1549 60.6295 38.0752 60.9318 38.0752C61.1929 38.0752 61.4403 38.1283 61.6602 38.2478C61.8801 38.3673 62.0587 38.5133 62.1687 38.6991V37H62.7321V41.3673H62.1687V40.7699C62.0587 40.969 61.8938 41.115 61.6739 41.2478C61.454 41.3673 61.2067 41.4336 60.9181 41.4336C60.6158 41.4336 60.3547 41.3673 60.1073 41.2212C59.8599 41.0752 59.6675 40.8761 59.5301 40.6239C59.3927 40.3717 59.324 40.0796 59.324 39.7478C59.3377 39.4159 59.4064 39.1239 59.5439 38.8717ZM62.0175 39.1106C61.9213 38.9248 61.7839 38.792 61.6052 38.6991C61.4266 38.6062 61.2342 38.5531 61.028 38.5531C60.8219 38.5531 60.6295 38.6062 60.4646 38.6991C60.2997 38.792 60.1623 38.9381 60.0523 39.1106C59.9561 39.2965 59.9012 39.5088 59.9012 39.7478C59.9012 40 59.9561 40.2124 60.0523 40.3982C60.1485 40.5841 60.2859 40.7168 60.4646 40.823C60.6295 40.9159 60.8219 40.969 61.028 40.969C61.2342 40.969 61.4266 40.9159 61.6052 40.823C61.7701 40.7301 61.9075 40.5841 62.0175 40.3982C62.1137 40.2124 62.1687 40 62.1687 39.7611C62.1687 39.5088 62.1274 39.2965 62.0175 39.1106Z" fill="#F26522"/>
<path d="M64.7386 38.2611C64.9585 38.1416 65.2058 38.0752 65.4944 38.0752C65.7968 38.0752 66.0716 38.1416 66.3052 38.2876C66.5526 38.4204 66.7312 38.6195 66.8687 38.8717C67.0061 39.1239 67.0748 39.4159 67.0748 39.7478C67.0748 40.0796 67.0061 40.3717 66.8687 40.6239C66.7312 40.8761 66.5388 41.0752 66.2915 41.2212C66.0441 41.3673 65.783 41.4336 65.4807 41.4336C65.1921 41.4336 64.9447 41.3673 64.7248 41.2478C64.505 41.1283 64.3401 40.969 64.2301 40.7832V41.3805H63.6804V37H64.2301V38.7389C64.3538 38.5398 64.5187 38.3805 64.7386 38.2611ZM66.3602 39.0973C66.264 38.9115 66.1128 38.7788 65.9479 38.6858C65.7693 38.5929 65.5769 38.5398 65.3707 38.5398C65.1646 38.5398 64.9722 38.5929 64.8073 38.6858C64.6286 38.7788 64.4912 38.9248 64.395 39.1106C64.2851 39.2965 64.2439 39.5088 64.2439 39.7478C64.2439 39.9867 64.2988 40.1991 64.395 40.385C64.505 40.5708 64.6424 40.7035 64.8073 40.8097C64.9859 40.9027 65.1646 40.9558 65.3707 40.9558C65.5769 40.9558 65.7693 40.9027 65.9479 40.8097C66.1128 40.7168 66.264 40.5708 66.3602 40.385C66.4564 40.1991 66.5114 39.9867 66.5114 39.7345C66.5114 39.4956 66.4564 39.2832 66.3602 39.0973Z" fill="#F26522"/>
<path d="M70.7029 38.1283L68.6828 42.8938H68.1056L68.7652 41.3407L67.4185 38.1416H68.0369L69.095 40.7699L70.1395 38.1416H70.7029V38.1283Z" fill="#F26522"/>
<path d="M74.3032 39.9469H71.6234C71.6372 40.2655 71.7609 40.5177 71.967 40.6903C72.1731 40.8628 72.4205 40.9558 72.7091 40.9558C72.9564 40.9558 73.1488 40.9027 73.3137 40.7965C73.4787 40.6903 73.5886 40.5443 73.6573 40.3584H74.262C74.1795 40.6637 73.9871 40.9159 73.726 41.115C73.4512 41.3142 73.1214 41.4071 72.7228 41.4071C72.4067 41.4071 72.1182 41.3407 71.8708 41.1947C71.6234 41.062 71.431 40.8628 71.2799 40.6106C71.1424 40.3584 71.0737 40.0664 71.0737 39.7345C71.0737 39.4027 71.1424 39.1106 71.2799 38.8584C71.4173 38.6062 71.6097 38.4071 71.8708 38.2743C72.1182 38.1416 72.4067 38.0752 72.7366 38.0752C73.0526 38.0752 73.3412 38.1416 73.5886 38.2743C73.836 38.4071 74.0146 38.5929 74.152 38.8319C74.2895 39.0708 74.3444 39.3363 74.3444 39.6283C74.3169 39.7345 74.3032 39.8407 74.3032 39.9469ZM73.6023 38.9912C73.5061 38.8451 73.3825 38.7257 73.2175 38.6593C73.0526 38.5797 72.874 38.5398 72.6816 38.5398C72.393 38.5398 72.1594 38.6327 71.967 38.8053C71.7746 38.9779 71.6509 39.2168 71.6234 39.5221H73.7398C73.7398 39.3097 73.6985 39.1372 73.6023 38.9912Z" fill="#F26522"/>
<path d="M77.3542 38.5796V40.4911C77.3542 40.6504 77.3954 40.7566 77.4641 40.823C77.5328 40.8894 77.6565 40.9159 77.8214 40.9159H78.2337V41.3672H77.739C77.4367 41.3672 77.203 41.3009 77.0381 41.1549C76.887 41.0221 76.8045 40.7964 76.8045 40.4779V38.5796H76.3647V38.1283H76.8045V37.3186H77.3542V38.1283H78.2337V38.5664H77.3542V38.5796Z" fill="#F26522"/>
<path d="M79.5116 41.2212C79.2504 41.0885 79.0581 40.8894 78.9069 40.6372C78.7557 40.385 78.687 40.0929 78.687 39.7611C78.687 39.4292 78.7557 39.1372 78.9069 38.885C79.0581 38.6327 79.2642 38.4336 79.5116 38.3009C79.7589 38.1681 80.0613 38.1018 80.3773 38.1018C80.6934 38.1018 80.982 38.1681 81.2431 38.3009C81.5042 38.4336 81.6966 38.6327 81.8478 38.885C81.9989 39.1372 82.0676 39.4292 82.0676 39.7611C82.0676 40.0929 81.9989 40.385 81.834 40.6372C81.6829 40.8894 81.4767 41.0885 81.2156 41.2212C80.9545 41.354 80.6659 41.4336 80.3498 41.4336C80.0475 41.4204 79.7727 41.354 79.5116 41.2212ZM80.927 40.823C81.1057 40.7301 81.2431 40.5974 81.353 40.4115C81.463 40.2257 81.5179 40.0133 81.5179 39.7478C81.5179 39.4823 81.463 39.2699 81.353 39.0841C81.2431 38.8982 81.1057 38.7655 80.9408 38.6726C80.7759 38.5797 80.5835 38.5398 80.3911 38.5398C80.1849 38.5398 80.0063 38.5797 79.8276 38.6726C79.6627 38.7655 79.5253 38.8982 79.4154 39.0841C79.3192 39.2699 79.2642 39.4823 79.2642 39.7478C79.2642 40.0133 79.3192 40.2389 79.4154 40.4115C79.5116 40.5974 79.649 40.7301 79.8139 40.8097C79.9788 40.9027 80.1712 40.9425 80.3636 40.9425C80.5697 40.9558 80.7484 40.9027 80.927 40.823Z" fill="#F26522"/>
<path d="M85.4072 37V41.3673H84.3628V37H85.4072Z" fill="#F26522"/>
<path d="M86.8226 41.208C86.5477 41.0752 86.3416 40.8761 86.1904 40.6106C86.0392 40.3584 85.9568 40.0531 85.9568 39.708C85.9568 39.3628 86.0255 39.0708 86.1904 38.8186C86.3416 38.5664 86.5614 38.3673 86.8226 38.2212C87.0974 38.0885 87.3997 38.0089 87.7296 38.0089C88.0594 38.0089 88.3617 38.0752 88.6366 38.2212C88.9114 38.354 89.1175 38.5531 89.2687 38.8186C89.4199 39.0708 89.5023 39.3761 89.5023 39.708C89.5023 40.0398 89.4199 40.3451 89.2687 40.5973C89.1175 40.8496 88.8977 41.0487 88.6228 41.1947C88.348 41.3274 88.0456 41.4071 87.7158 41.4071C87.386 41.4204 87.0837 41.354 86.8226 41.208ZM88.2243 40.3319C88.3617 40.1858 88.4304 39.9867 88.4304 39.7212C88.4304 39.4558 88.3617 39.2566 88.2243 39.1106C88.0869 38.9646 87.922 38.8982 87.7158 38.8982C87.5097 38.8982 87.3448 38.9646 87.2073 39.1106C87.0699 39.2566 87.0012 39.4558 87.0012 39.7212C87.0012 39.9867 87.0699 40.1858 87.1936 40.3319C87.331 40.4779 87.4959 40.5442 87.6883 40.5442C87.9219 40.5442 88.0869 40.4779 88.2243 40.3319Z" fill="#F26522"/>
<path d="M93.1028 38.4204C93.3364 38.6726 93.4601 39.0177 93.4601 39.4558V41.3805H92.4157V39.5752C92.4157 39.3496 92.3607 39.1903 92.237 39.0575C92.1134 38.9381 91.9622 38.8717 91.7561 38.8717C91.5499 38.8717 91.3988 38.9381 91.2751 39.0575C91.1514 39.177 91.0964 39.3496 91.0964 39.5752V41.3673H90.052V38.0752H91.0964V38.5133C91.2064 38.3673 91.3438 38.2478 91.5224 38.1681C91.7011 38.0885 91.9072 38.0354 92.1271 38.0354C92.5394 38.0354 92.8554 38.1681 93.1028 38.4204Z" fill="#F26522"/>
<path d="M96.1124 38.1681C96.2911 38.2611 96.4285 38.3805 96.5247 38.5398V38.0752H97.5691V41.3673C97.5691 41.6726 97.5142 41.9513 97.3905 42.1903C97.2668 42.4425 97.0744 42.6283 96.827 42.7743C96.5659 42.9204 96.2498 42.9867 95.8788 42.9867C95.3703 42.9867 94.9581 42.8673 94.6557 42.6416C94.3397 42.4159 94.161 42.0973 94.1198 41.6991H95.1505C95.1917 41.8186 95.2604 41.9248 95.3841 41.9912C95.5078 42.0708 95.6589 42.0973 95.8376 42.0973C96.0575 42.0973 96.2224 42.031 96.3598 41.9115C96.4835 41.792 96.5522 41.5929 96.5522 41.3407V40.9027C96.456 41.0619 96.3048 41.1814 96.1262 41.2743C95.9475 41.3673 95.7414 41.4204 95.494 41.4204C95.2054 41.4204 94.9581 41.354 94.7244 41.208C94.4908 41.0619 94.3122 40.8628 94.1885 40.6106C94.0511 40.3584 93.9961 40.0531 93.9961 39.7212C93.9961 39.3894 94.0648 39.0841 94.1885 38.8319C94.3259 38.5796 94.5046 38.3805 94.7244 38.2345C94.9581 38.1018 95.2054 38.0221 95.494 38.0221C95.7276 38.0221 95.9338 38.0752 96.1124 38.1681ZM96.3186 39.1239C96.1674 38.9779 96.0025 38.9115 95.7964 38.9115C95.5902 38.9115 95.4116 38.9779 95.2741 39.1239C95.123 39.2699 95.0543 39.469 95.0543 39.7212C95.0543 39.9735 95.123 40.1726 95.2741 40.3186C95.4253 40.4646 95.5902 40.5442 95.7964 40.5442C96.0025 40.5442 96.1811 40.4646 96.3186 40.3319C96.4697 40.1858 96.5384 39.9867 96.5384 39.7345C96.5247 39.469 96.456 39.2699 96.3186 39.1239Z" fill="#F26522"/>
<path d="M99.6304 38.8584C99.7679 38.6062 99.9603 38.4071 100.194 38.2611C100.428 38.115 100.689 38.0487 100.977 38.0487C101.197 38.0487 101.389 38.0885 101.554 38.1549C101.719 38.2345 101.857 38.3274 101.967 38.4602V38.0752H103.011V42.9469H101.967V40.9558C101.843 41.0885 101.706 41.208 101.541 41.2876C101.376 41.3673 101.183 41.4071 100.963 41.4071C100.689 41.4071 100.428 41.3407 100.194 41.1947C99.9603 41.0487 99.7679 40.8496 99.6304 40.5973C99.493 40.3451 99.4243 40.0531 99.4243 39.7212C99.4243 39.3894 99.493 39.1106 99.6304 38.8584ZM101.87 39.2832C101.802 39.1637 101.706 39.0708 101.596 39.0044C101.486 38.9381 101.362 38.9115 101.238 38.9115C101.115 38.9115 100.991 38.9381 100.881 39.0044C100.771 39.0708 100.675 39.1637 100.592 39.2832C100.51 39.4027 100.482 39.5619 100.482 39.7345C100.482 39.9071 100.524 40.0664 100.592 40.1858C100.661 40.3053 100.757 40.3982 100.881 40.4646C100.991 40.531 101.115 40.5575 101.238 40.5575C101.362 40.5575 101.486 40.531 101.596 40.4646C101.719 40.3982 101.802 40.3053 101.87 40.1858C101.939 40.0664 101.98 39.9071 101.98 39.7345C101.98 39.5487 101.939 39.4027 101.87 39.2832Z" fill="#F26522"/>
<path d="M107.148 38.0752V41.3673H106.103V40.9292C105.993 41.0752 105.856 41.1947 105.677 41.2743C105.498 41.3673 105.292 41.4071 105.072 41.4071C104.811 41.4071 104.578 41.354 104.385 41.2345C104.193 41.1283 104.028 40.9558 103.918 40.7434C103.808 40.531 103.753 40.2788 103.753 39.9867V38.0752H104.798V39.8673C104.798 40.0929 104.853 40.2522 104.976 40.385C105.1 40.5044 105.251 40.5708 105.457 40.5708C105.663 40.5708 105.828 40.5044 105.938 40.385C106.062 40.2655 106.117 40.0929 106.117 39.8673V38.0752H107.148Z" fill="#F26522"/>
<path d="M111.105 39.9602H108.742C108.756 40.1593 108.824 40.3186 108.948 40.4248C109.072 40.531 109.223 40.5841 109.388 40.5841C109.649 40.5841 109.827 40.4779 109.937 40.2655H111.05C110.996 40.4779 110.886 40.677 110.748 40.8496C110.583 41.0354 110.391 41.1681 110.171 41.2743C109.951 41.3673 109.69 41.4204 109.415 41.4204C109.085 41.4204 108.783 41.354 108.522 41.208C108.261 41.0752 108.055 40.8761 107.903 40.6106C107.752 40.3584 107.684 40.0531 107.684 39.708C107.684 39.3628 107.752 39.0708 107.903 38.8053C108.055 38.5531 108.247 38.354 108.508 38.208C108.769 38.0752 109.072 37.9956 109.401 37.9956C109.731 37.9956 110.02 38.0619 110.281 38.1947C110.542 38.3274 110.734 38.5133 110.886 38.7655C111.037 39.0177 111.105 39.3097 111.105 39.6283C111.119 39.7611 111.119 39.8673 111.105 39.9602ZM110.047 39.4027C110.047 39.2301 109.992 39.0973 109.869 38.9912C109.745 38.885 109.594 38.8319 109.415 38.8319C109.236 38.8319 109.099 38.885 108.975 38.9779C108.852 39.0708 108.783 39.2168 108.756 39.4027H110.047Z" fill="#F26522"/>
<path d="M115.036 38.0752V41.3673H113.991V40.9292C113.881 41.0752 113.744 41.1947 113.565 41.2743C113.387 41.3673 113.181 41.4071 112.961 41.4071C112.7 41.4071 112.466 41.354 112.274 41.2345C112.081 41.1283 111.916 40.9558 111.806 40.7434C111.696 40.531 111.641 40.2788 111.641 39.9867V38.0752H112.686V39.8673C112.686 40.0929 112.741 40.2522 112.864 40.385C112.988 40.5044 113.139 40.5708 113.345 40.5708C113.552 40.5708 113.716 40.5044 113.826 40.385C113.95 40.2655 114.005 40.0929 114.005 39.8673V38.0752H115.036Z" fill="#F26522"/>
<path d="M118.994 39.9602H116.63C116.644 40.1593 116.712 40.3186 116.836 40.4248C116.96 40.531 117.111 40.5841 117.276 40.5841C117.537 40.5841 117.716 40.4779 117.825 40.2655H118.939C118.884 40.4779 118.774 40.677 118.636 40.8496C118.485 41.0221 118.306 41.1549 118.073 41.2611C117.853 41.354 117.592 41.4071 117.317 41.4071C116.987 41.4071 116.685 41.3407 116.424 41.1947C116.163 41.0619 115.956 40.8628 115.805 40.5973C115.654 40.3451 115.585 40.0398 115.585 39.6947C115.585 39.3496 115.654 39.0575 115.805 38.792C115.956 38.5398 116.149 38.3407 116.41 38.1947C116.671 38.0619 116.973 37.9823 117.303 37.9823C117.633 37.9823 117.922 38.0487 118.183 38.1814C118.444 38.3142 118.636 38.5 118.787 38.7522C118.939 39.0044 119.007 39.2965 119.007 39.615C119.007 39.7611 119.007 39.8673 118.994 39.9602ZM117.935 39.4027C117.935 39.2301 117.88 39.0973 117.757 38.9911C117.633 38.885 117.482 38.8319 117.303 38.8319C117.125 38.8319 116.987 38.885 116.863 38.9779C116.74 39.0708 116.671 39.2168 116.644 39.4027H117.935Z" fill="#F26522"/>
<path d="M119.942 41.2611C119.832 41.1549 119.763 41.0221 119.763 40.8761C119.763 40.7168 119.818 40.5841 119.942 40.4779C120.066 40.3717 120.203 40.3186 120.382 40.3186C120.56 40.3186 120.711 40.3717 120.821 40.4779C120.931 40.5841 121 40.7168 121 40.8761C121 41.0354 120.945 41.1549 120.821 41.2611C120.698 41.3673 120.56 41.4204 120.382 41.4204C120.203 41.4204 120.052 41.3673 119.942 41.2611ZM120.931 37.0797L120.808 39.9071H119.928L119.804 37.0797H120.931V37.0797Z" fill="#F26522"/>
</svg>
