<svg width="128" height="37" viewBox="0 0 128 37" fill="none" xmlns="http://www.w3.org/2000/svg">
<path d="M30.8919 24.517C32.2529 22.15 33.0339 19.407 33.0339 16.481C33.0339 7.55399 25.7969 0.316986 16.8679 0.316986C7.9399 0.315986 0.701904 7.55299 0.701904 16.48C0.701904 21.155 2.6859 25.366 5.8639 28.319C5.9469 23.713 6.0919 18.561 6.3389 16.643C6.8049 13.035 10.1909 11.646 14.6549 7.86799C15.9739 6.74799 18.0389 6.46199 20.7259 8.36399C23.5779 10.384 26.4039 11.554 27.3099 12.478C28.4969 13.689 27.9549 14.785 26.8309 14.785C25.7149 14.785 23.5589 13.304 22.0839 12.6C17.2769 10.292 16.8669 10.112 14.6229 12.644C12.2399 15.335 10.8249 17.934 13.9469 19.517C16.6219 20.872 19.3569 17.99 21.0539 15.966C22.5499 14.185 24.5119 14.292 25.1929 15.149C25.8739 16.013 24.3619 16.548 23.2849 17.646C21.1619 19.811 21.8009 20.357 20.1439 23.192C18.7879 25.513 16.9259 25.357 15.2039 27.076C14.5469 27.728 14.4069 30.103 14.4459 32.467C15.2359 32.59 16.0449 32.65 16.8669 32.65C19.8029 32.65 22.5539 31.86 24.9299 30.492L30.4239 31.433C30.4239 31.433 32.1289 31.628 31.7099 29.383C31.5229 28.373 31.1649 26.197 30.8919 24.517ZM24.8219 9.67499L20.1449 7.11199C21.1149 7.21499 21.4939 7.21099 22.1989 7.33399C22.7969 7.43899 24.7319 7.50099 25.1979 8.33099C25.6619 9.15399 24.8219 9.67499 24.8219 9.67499Z" fill="#F26522"/>
<path d="M71.063 18.168L70.457 26.489L70.436 26.804C70.315 27.4 69.77 27.824 69.142 27.78L66.415 27.585C65.733 27.536 65.229 26.952 65.274 26.273L65.868 18.006C65.99 16.328 64.831 14.761 63.164 14.538C61.35 14.292 59.726 15.632 59.598 17.432L58.984 25.951C58.877 26.561 58.326 27.008 57.692 26.962L54.959 26.765C54.328 26.721 53.837 26.201 53.822 25.576L54.278 19.184C54.276 19.231 54.27 19.278 54.264 19.324L54.292 19.022L55.494 2.24399C55.587 1.61499 56.149 1.15299 56.794 1.19899L59.525 1.39599C60.159 1.44099 60.638 1.95199 60.662 2.56999L60.11 10.258C60.802 9.91299 61.58 9.44999 62.32 9.25899C67.241 7.97199 71.544 11.484 71.063 18.168Z" fill="#115934"/>
<path d="M70.457 26.646C70.454 26.69 70.451 26.73 70.441 26.772C70.438 26.783 70.438 26.793 70.436 26.803L70.457 26.489C70.459 26.5 70.459 26.51 70.459 26.521C70.462 26.562 70.459 26.606 70.457 26.646Z" fill="#115934"/>
<path d="M90.161 17.431C90.161 17.382 90.158 17.332 90.157 17.287L90.177 17.593L90.18 17.618L90.837 26.46C90.834 26.46 90.834 26.46 90.837 26.462L90.858 26.785C90.826 27.362 90.392 27.847 89.81 27.925L89.666 27.935C89.662 27.936 89.654 27.937 89.65 27.936L87.116 28.126C87.113 28.125 87.113 28.126 87.113 28.126L86.872 28.143C86.292 28.129 85.806 27.715 85.697 27.152C85.697 27.152 85.697 27.152 85.697 27.149C85.694 27.136 85.691 27.121 85.69 27.106L85.675 26.917L85.594 25.819C84.751 27.348 83.702 28.135 83.007 28.429C78.323 30.42 74.202 27.562 73.704 20.874L73.095 12.537L73.075 12.259C73.097 11.654 73.57 11.142 74.189 11.089L74.224 11.085L76.766 10.897C76.767 10.893 76.767 10.893 76.772 10.897L77.1 10.87H77.103H77.108C77.662 10.909 78.13 11.324 78.228 11.876C78.236 11.916 78.241 11.958 78.244 12L78.863 20.282C78.989 21.959 80.365 23.34 82.044 23.32C83.88 23.299 85.287 21.736 85.152 19.937L85.01 18.007L84.536 11.688C84.536 11.688 84.536 11.688 84.535 11.687L84.515 11.416C84.516 11.411 84.516 11.407 84.516 11.404C84.537 10.798 85.014 10.287 85.632 10.234L85.664 10.232L88.214 10.042L88.537 10.016H88.542C89.102 10.049 89.572 10.466 89.673 11.021C89.682 11.065 89.684 11.108 89.689 11.149C89.69 11.169 89.69 11.191 89.69 11.212L90.144 17.257L90.161 17.431Z" fill="#115934"/>
<path d="M112.018 15.215C111.49 14.047 110.711 13.005 109.79 12.14C108.857 11.276 107.767 10.597 106.578 10.163C105.393 9.725 104.123 9.542 102.886 9.613C101.075 9.703 99.3299 10.346 97.8739 11.372L97.8709 11.359C97.7709 10.845 97.3499 10.442 96.8159 10.379H96.8139C96.7669 10.374 96.7299 10.371 96.6859 10.371L93.8699 10.414C93.2599 10.442 92.7689 10.918 92.7109 11.512C92.7109 11.514 92.7109 11.517 92.7079 11.52C92.7029 11.566 92.6979 11.61 92.6999 11.657L93.0489 34.832C93.0509 34.88 93.0539 34.924 93.0639 34.971C93.0639 34.973 93.0639 34.973 93.0619 34.976C93.1429 35.585 93.6699 36.049 94.2939 36.039L97.0209 36C97.6579 35.992 98.1729 35.502 98.2239 34.88C98.2239 34.872 98.2259 34.858 98.2259 34.85L98.1119 27.088C98.5649 27.39 99.0429 27.655 99.5409 27.878C100.676 28.386 101.917 28.687 103.173 28.726C104.429 28.766 105.724 28.56 106.92 28.087C108.119 27.613 109.212 26.883 110.121 25.965C111.03 25.05 111.754 23.947 112.229 22.741C112.705 21.531 112.921 20.228 112.895 18.948C112.854 17.668 112.564 16.38 112.018 15.215ZM107.068 19.037C107.051 20.141 106.67 21.201 105.968 22.057C105.259 22.897 104.262 23.498 103.1 23.649C102.514 23.717 101.913 23.671 101.346 23.478C100.777 23.286 100.238 22.962 99.7989 22.521C99.3559 22.084 99.0329 21.539 98.8269 20.965C98.6169 20.382 98.5059 19.78 98.4889 19.164C98.4789 18.548 98.5439 17.934 98.7189 17.335C98.8939 16.739 99.1979 16.166 99.6289 15.704C100.06 15.238 100.599 14.884 101.167 14.665C101.746 14.445 102.355 14.359 102.958 14.396C104.16 14.484 105.255 15.046 105.995 15.926C106.749 16.815 107.08 17.934 107.068 19.037Z" fill="#115934"/>
<path d="M51.4139 26.388C51.4039 26.429 51.3949 26.478 51.3849 26.522C51.3169 26.765 51.1909 26.975 51.0179 27.14C51.0149 27.142 51.0129 27.143 51.0129 27.143C50.8989 27.226 50.7839 27.301 50.6649 27.378C50.6649 27.379 50.6649 27.379 50.6629 27.379C49.0829 28.404 47.1869 28.996 45.1599 28.976C39.6709 28.913 35.2699 24.415 35.3309 18.926C35.3919 13.44 39.8899 9.04199 45.3769 9.10099C47.3879 9.12299 49.2539 9.74099 50.8049 10.787C50.8069 10.787 50.8069 10.787 50.8099 10.79C50.9469 10.883 51.0849 10.981 51.2199 11.079C51.2229 11.084 51.2229 11.084 51.2249 11.088C51.2529 11.114 51.2779 11.142 51.3009 11.173C51.6839 11.66 51.6819 12.342 51.3049 12.823L51.0519 13.069L49.2159 14.87L48.9989 15.078C48.9959 15.081 48.9929 15.083 48.9889 15.089C48.5909 15.388 48.0659 15.436 47.6259 15.237C47.5499 15.188 47.4699 15.14 47.3879 15.096C47.3879 15.094 47.3859 15.094 47.3839 15.093C46.7669 14.758 46.0659 14.566 45.3179 14.559C42.8489 14.531 40.8179 16.518 40.7919 18.986C40.7609 21.454 42.7519 23.488 45.2169 23.513C45.9559 23.521 46.6559 23.348 47.2769 23.032C47.3719 22.985 47.4699 22.934 47.5609 22.876C47.7789 22.788 48.0229 22.752 48.2769 22.795C48.5669 22.844 48.8199 22.977 49.0129 23.182C49.0209 23.189 49.0259 23.196 49.0339 23.202L50.8829 25.093C50.8829 25.095 50.8849 25.095 50.8879 25.098L51.1909 25.41C51.1929 25.411 51.1959 25.412 51.1959 25.414C51.3609 25.655 51.4479 25.942 51.4309 26.251C51.4249 26.292 51.4209 26.339 51.4139 26.388Z" fill="#115934"/>
<path d="M124.783 26.733H124.207V28.437H123.801V26.733H123.236V26.421H124.784V26.733H124.783Z" fill="#115934"/>
<path d="M126.046 27.909H126.057L126.576 26.422H127.102V28.438H126.696V27.064L126.688 27.059L126.192 28.438H125.916L125.417 27.056L125.409 27.057V28.438H125.006V26.422H125.537L126.046 27.909Z" fill="#115934"/>
<path d="M122.28 6.82897C122.28 6.82897 122.275 6.82897 122.274 6.82897C122.235 6.81797 122.193 6.80997 122.154 6.80597L118.014 6.47397C117.396 6.43197 116.849 6.85497 116.72 7.44897C116.72 7.45197 116.72 7.45397 116.715 7.45497C116.705 7.49797 116.695 7.54497 116.69 7.58897L116.19 24.947C116.757 24.793 117.361 24.737 117.976 24.808C118.587 24.875 119.16 25.06 119.675 25.329L123.235 7.95797V7.94397C123.193 7.41197 122.806 6.95797 122.28 6.82897Z" fill="#115934"/>
<path d="M117.795 26.441C116.035 26.246 114.45 27.514 114.259 29.272C114.059 31.028 115.326 32.613 117.085 32.809C118.844 33.004 120.431 31.741 120.626 29.983C120.82 28.225 119.555 26.639 117.795 26.441Z" fill="#F26522"/>
</svg>
