<svg width="81" height="82" viewBox="0 0 81 82" fill="none" xmlns="http://www.w3.org/2000/svg">
<path fill-rule="evenodd" clip-rule="evenodd" d="M81 41C81 48.336 79.0522 55.2167 75.6371 61.1362C76.3201 65.3354 77.2308 70.7995 77.7114 73.3039C78.7739 78.9197 74.4987 78.4391 74.4987 78.4391L60.7373 76.0865C54.7673 79.5268 47.8866 81.5 40.5253 81.5C39.2731 81.5 38.0393 81.4447 36.8239 81.3341C24.9903 80.8766 14.9068 74.921 8.61023 65.9654C3.22053 59.079 0 50.4155 0 41C0 18.6377 18.1377 0.5 40.5 0.5C62.8876 0.5 81 18.6377 81 41Z" fill="#F26522"/>
<path d="M52.3015 55.333H26.1687C25.6739 55.333 25.2729 54.9319 25.2729 54.4372C25.2729 54.2433 25.3357 54.0547 25.452 53.8997L26.1687 52.944V37.4163C26.1687 35.0337 26.75 32.7869 27.7786 30.8099L21.4985 24.5299L24.0323 21.9961L59.5055 57.4692L56.9717 60.0032L52.3015 55.333ZM54.8353 47.7826L32.5453 25.4924C34.8216 23.9704 37.5583 23.0829 40.502 23.0829C48.4181 23.0829 54.8353 29.5002 54.8353 37.4163V47.7826ZM36.0229 57.1247H44.9811C44.9811 59.5984 42.9757 61.6038 40.502 61.6038C38.0282 61.6038 36.0229 59.5984 36.0229 57.1247Z" fill="white"/>
</svg>
